<mxfile host="app.diagrams.net" modified="2022-11-20T09:25:46.457Z" agent="5.0 (X11; Ubuntu)" etag="l_4FBJWG-XNrbcSpaift" version="20.5.1" type="github" pages="2">
  <diagram id="33bkx_uLFFvx7bbCJEID" name="Project Diagram">
    <mxGraphModel dx="2249" dy="-405" grid="1" gridSize="10" guides="1" tooltips="1" connect="1" arrows="1" fold="1" page="1" pageScale="1" pageWidth="827" pageHeight="1169" math="0" shadow="0">
      <root>
        <mxCell id="0" />
        <mxCell id="1" parent="0" />
        <mxCell id="bl-t90TqCPlwm7aX9RKi-2" value="" style="verticalLabelPosition=bottom;html=1;verticalAlign=top;strokeWidth=1;align=center;outlineConnect=0;dashed=0;outlineConnect=0;shape=mxgraph.aws3d.dataCenter;strokeColor=#5E5E5E;aspect=fixed;fontSize=11;" parent="1" vertex="1">
          <mxGeometry x="783" y="1467" width="123" height="142" as="geometry" />
        </mxCell>
        <mxCell id="bl-t90TqCPlwm7aX9RKi-3" value="" style="verticalLabelPosition=bottom;html=1;verticalAlign=top;strokeWidth=1;align=center;outlineConnect=0;dashed=0;outlineConnect=0;shape=mxgraph.aws3d.end_user;strokeColor=none;fillColor=#777777;aspect=fixed;" parent="1" vertex="1">
          <mxGeometry x="30" y="2214.88" width="55.5" height="113.79" as="geometry" />
        </mxCell>
        <mxCell id="bl-t90TqCPlwm7aX9RKi-4" value="" style="verticalLabelPosition=bottom;html=1;verticalAlign=top;strokeWidth=1;align=center;outlineConnect=0;dashed=0;outlineConnect=0;shape=mxgraph.aws3d.dataServer;strokeColor=#5E5E5E;aspect=fixed;fontSize=11;" parent="1" vertex="1">
          <mxGeometry x="268.1" y="1980" width="152" height="130.99" as="geometry" />
        </mxCell>
        <mxCell id="bl-t90TqCPlwm7aX9RKi-5" value="&lt;h1&gt;Server&lt;/h1&gt;" style="text;html=1;strokeColor=none;fillColor=none;align=center;verticalAlign=middle;whiteSpace=wrap;rounded=0;" parent="1" vertex="1">
          <mxGeometry x="210" y="1949.01" width="126" height="72" as="geometry" />
        </mxCell>
        <mxCell id="bl-t90TqCPlwm7aX9RKi-6" value="" style="verticalLabelPosition=bottom;html=1;verticalAlign=top;strokeWidth=1;align=center;outlineConnect=0;dashed=0;outlineConnect=0;shape=mxgraph.aws3d.arrowNE;fillColor=#000000;aspect=fixed;fontSize=11;" parent="1" vertex="1">
          <mxGeometry x="57.75" y="2210" width="91.5" height="52.29" as="geometry" />
        </mxCell>
        <mxCell id="bl-t90TqCPlwm7aX9RKi-7" value="" style="verticalLabelPosition=bottom;html=1;verticalAlign=top;strokeWidth=1;align=center;outlineConnect=0;dashed=0;outlineConnect=0;shape=mxgraph.aws3d.arrowSW;fillColor=#000000;aspect=fixed;fontSize=11;shadow=0;sketch=0;" parent="1" vertex="1">
          <mxGeometry x="75.75" y="2219" width="103.47" height="59.13" as="geometry" />
        </mxCell>
        <mxCell id="bl-t90TqCPlwm7aX9RKi-8" value="&lt;h1&gt;Database&lt;/h1&gt;" style="text;html=1;strokeColor=none;fillColor=none;align=center;verticalAlign=middle;whiteSpace=wrap;rounded=0;" parent="1" vertex="1">
          <mxGeometry x="783" y="1410" width="126" height="72" as="geometry" />
        </mxCell>
        <mxCell id="bl-t90TqCPlwm7aX9RKi-9" value="" style="verticalLabelPosition=bottom;html=1;verticalAlign=top;strokeWidth=1;align=center;outlineConnect=0;dashed=0;outlineConnect=0;shape=mxgraph.aws3d.application_server;fillColor=#ECECEC;strokeColor=#5E5E5E;aspect=fixed;shadow=0;sketch=0;fontSize=11;" parent="1" vertex="1">
          <mxGeometry x="443.34000000000003" y="1879.51" width="123" height="124" as="geometry" />
        </mxCell>
        <mxCell id="bl-t90TqCPlwm7aX9RKi-10" value="&lt;h1&gt;&lt;span class=&quot;VIiyi&quot; lang=&quot;en&quot;&gt;&lt;span class=&quot;JLqJ4b ChMk0b&quot;&gt;&lt;span class=&quot;Q4iAWc&quot;&gt;API`s&lt;/span&gt;&lt;/span&gt;&lt;/span&gt;&lt;/h1&gt;" style="text;html=1;strokeColor=none;fillColor=none;align=center;verticalAlign=middle;whiteSpace=wrap;rounded=0;" parent="1" vertex="1">
          <mxGeometry x="443.34000000000003" y="1820" width="126" height="72" as="geometry" />
        </mxCell>
        <mxCell id="bl-t90TqCPlwm7aX9RKi-11" value="" style="verticalLabelPosition=bottom;html=1;verticalAlign=top;strokeWidth=1;align=center;outlineConnect=0;dashed=0;outlineConnect=0;shape=mxgraph.aws3d.flatEdge2;strokeColor=none;fillColor=#F4B934;aspect=fixed;shadow=0;sketch=0;fontSize=11;rotation=-175;" parent="1" vertex="1">
          <mxGeometry x="381.73999999999995" y="1966.51" width="64.96" height="37" as="geometry" />
        </mxCell>
        <mxCell id="bl-t90TqCPlwm7aX9RKi-12" value="" style="verticalLabelPosition=bottom;html=1;verticalAlign=top;strokeWidth=1;align=center;outlineConnect=0;dashed=0;outlineConnect=0;shape=mxgraph.aws3d.flatEdge2;strokeColor=none;fillColor=#F4B934;aspect=fixed;shadow=0;sketch=0;fontSize=11;rotation=5;" parent="1" vertex="1">
          <mxGeometry x="420.09999999999997" y="2003.51" width="63.2" height="36" as="geometry" />
        </mxCell>
        <mxCell id="bl-t90TqCPlwm7aX9RKi-35" value="" style="edgeStyle=isometricEdgeStyle;endArrow=none;html=1;rounded=0;fontSize=11;exitX=0.333;exitY=1.014;exitDx=0;exitDy=0;exitPerimeter=0;" parent="1" source="bl-t90TqCPlwm7aX9RKi-10" target="bl-t90TqCPlwm7aX9RKi-36" edge="1">
          <mxGeometry width="50" height="100" relative="1" as="geometry">
            <mxPoint x="405" y="1782" as="sourcePoint" />
            <mxPoint x="299" y="1693.0456013462638" as="targetPoint" />
            <Array as="points">
              <mxPoint x="324" y="1800" />
              <mxPoint x="351" y="1818" />
              <mxPoint x="306" y="1791" />
              <mxPoint x="261" y="1764" />
            </Array>
          </mxGeometry>
        </mxCell>
        <mxCell id="bl-t90TqCPlwm7aX9RKi-36" value="" style="verticalLabelPosition=bottom;html=1;verticalAlign=top;strokeWidth=1;align=center;outlineConnect=0;dashed=0;outlineConnect=0;shape=mxgraph.aws3d.secureConnection;fillColor=#000000;strokeColor=#ffffff;aspect=fixed;shadow=0;sketch=0;fontSize=11;" parent="1" vertex="1">
          <mxGeometry x="414" y="1690" width="29.34" height="17.5" as="geometry" />
        </mxCell>
        <mxCell id="TzJuqHu7ho1rDmZDQmOb-2" value="Client device with Telegram" style="rounded=0;whiteSpace=wrap;html=1;" parent="1" vertex="1">
          <mxGeometry x="160" y="2150" width="120" height="50" as="geometry" />
        </mxCell>
        <mxCell id="TzJuqHu7ho1rDmZDQmOb-3" value="" style="verticalLabelPosition=bottom;html=1;verticalAlign=top;strokeWidth=1;align=center;outlineConnect=0;dashed=0;outlineConnect=0;shape=mxgraph.aws3d.arrowNE;fillColor=#000000;aspect=fixed;fontSize=11;" parent="1" vertex="1">
          <mxGeometry x="226.6" y="2100" width="41.5" height="23.72" as="geometry" />
        </mxCell>
        <mxCell id="TzJuqHu7ho1rDmZDQmOb-4" value="" style="verticalLabelPosition=bottom;html=1;verticalAlign=top;strokeWidth=1;align=center;outlineConnect=0;dashed=0;outlineConnect=0;shape=mxgraph.aws3d.arrowSW;fillColor=#000000;aspect=fixed;fontSize=11;shadow=0;sketch=0;" parent="1" vertex="1">
          <mxGeometry x="258.74" y="2110.99" width="43.47" height="24.85" as="geometry" />
        </mxCell>
        <mxCell id="-5Y2VZfphKITMyqbisO4-1" value="secure connection" style="edgeStyle=isometricEdgeStyle;endArrow=none;html=1;rounded=0;fontSize=11;startArrow=none;" edge="1" parent="1" target="-5Y2VZfphKITMyqbisO4-2">
          <mxGeometry x="0.7349" y="1" width="50" height="100" relative="1" as="geometry">
            <mxPoint x="290" y="1630" as="sourcePoint" />
            <mxPoint x="490" y="1740" as="targetPoint" />
            <Array as="points">
              <mxPoint x="780" y="1910" />
              <mxPoint x="710" y="1870" />
              <mxPoint x="730" y="1880" />
              <mxPoint x="480" y="1740" />
              <mxPoint x="490" y="1750" />
              <mxPoint x="670" y="1850" />
              <mxPoint x="352" y="1729" />
            </Array>
            <mxPoint as="offset" />
          </mxGeometry>
        </mxCell>
        <mxCell id="-5Y2VZfphKITMyqbisO4-2" value="" style="verticalLabelPosition=bottom;html=1;verticalAlign=top;strokeWidth=1;align=center;outlineConnect=0;dashed=0;outlineConnect=0;shape=mxgraph.aws3d.application_server;fillColor=#ECECEC;strokeColor=#5E5E5E;aspect=fixed;shadow=0;sketch=0;fontSize=11;" vertex="1" parent="1">
          <mxGeometry x="590" y="1650" width="123" height="124" as="geometry" />
        </mxCell>
        <mxCell id="-5Y2VZfphKITMyqbisO4-3" value="" style="verticalLabelPosition=bottom;html=1;verticalAlign=top;strokeWidth=1;align=center;outlineConnect=0;dashed=0;outlineConnect=0;shape=mxgraph.aws3d.application_server;fillColor=#ECECEC;strokeColor=#5E5E5E;aspect=fixed;shadow=0;sketch=0;fontSize=11;" vertex="1" parent="1">
          <mxGeometry x="233.9" y="1510" width="123" height="124" as="geometry" />
        </mxCell>
        <mxCell id="-5Y2VZfphKITMyqbisO4-5" value="&lt;h1&gt;Admin&lt;br&gt;&lt;/h1&gt;" style="text;html=1;strokeColor=none;fillColor=none;align=center;verticalAlign=middle;whiteSpace=wrap;rounded=0;" vertex="1" parent="1">
          <mxGeometry x="230.9" y="1460" width="126" height="72" as="geometry" />
        </mxCell>
        <mxCell id="-5Y2VZfphKITMyqbisO4-7" value="" style="verticalLabelPosition=bottom;html=1;verticalAlign=top;strokeWidth=1;align=center;outlineConnect=0;dashed=0;outlineConnect=0;shape=mxgraph.aws3d.application_server;fillColor=#ECECEC;strokeColor=#5E5E5E;aspect=fixed;shadow=0;sketch=0;fontSize=11;" vertex="1" parent="1">
          <mxGeometry x="258.74" y="1707.5" width="123" height="124" as="geometry" />
        </mxCell>
        <mxCell id="-5Y2VZfphKITMyqbisO4-8" value="&lt;h1&gt;Config&lt;br&gt;&lt;/h1&gt;" style="text;html=1;strokeColor=none;fillColor=none;align=center;verticalAlign=middle;whiteSpace=wrap;rounded=0;" vertex="1" parent="1">
          <mxGeometry x="258.74" y="1662" width="126" height="72" as="geometry" />
        </mxCell>
        <mxCell id="-5Y2VZfphKITMyqbisO4-9" value="&lt;h1&gt;Telegrambot&lt;/h1&gt;" style="text;html=1;strokeColor=none;fillColor=none;align=center;verticalAlign=middle;whiteSpace=wrap;rounded=0;" vertex="1" parent="1">
          <mxGeometry x="610" y="1600" width="126" height="72" as="geometry" />
        </mxCell>
        <mxCell id="-5Y2VZfphKITMyqbisO4-10" value="&lt;h1&gt;User&lt;/h1&gt;" style="text;html=1;strokeColor=none;fillColor=none;align=center;verticalAlign=middle;whiteSpace=wrap;rounded=0;" vertex="1" parent="1">
          <mxGeometry x="-5.25" y="2150" width="126" height="72" as="geometry" />
        </mxCell>
        <mxCell id="-5Y2VZfphKITMyqbisO4-11" value="" style="endArrow=classic;startArrow=none;html=1;rounded=0;fontSize=12;" edge="1" parent="1" source="-5Y2VZfphKITMyqbisO4-12" target="bl-t90TqCPlwm7aX9RKi-4">
          <mxGeometry width="50" height="50" relative="1" as="geometry">
            <mxPoint x="700" y="2040" as="sourcePoint" />
            <mxPoint x="750" y="1990" as="targetPoint" />
            <Array as="points">
              <mxPoint x="70" y="1940" />
            </Array>
          </mxGeometry>
        </mxCell>
        <mxCell id="-5Y2VZfphKITMyqbisO4-12" value="Admin device with Web" style="rounded=0;whiteSpace=wrap;html=1;" vertex="1" parent="1">
          <mxGeometry x="40" y="1916.51" width="120" height="50" as="geometry" />
        </mxCell>
        <mxCell id="-5Y2VZfphKITMyqbisO4-13" value="" style="endArrow=none;startArrow=classic;html=1;rounded=0;fontSize=12;" edge="1" parent="1" source="bl-t90TqCPlwm7aX9RKi-3" target="-5Y2VZfphKITMyqbisO4-12">
          <mxGeometry width="50" height="50" relative="1" as="geometry">
            <mxPoint x="38.58769176512078" y="2214.88" as="sourcePoint" />
            <mxPoint x="443.34000000000015" y="1941.2964386900928" as="targetPoint" />
            <Array as="points" />
          </mxGeometry>
        </mxCell>
        <mxCell id="-5Y2VZfphKITMyqbisO4-14" value="" style="endArrow=classic;startArrow=classic;html=1;rounded=0;fontSize=12;" edge="1" parent="1" source="-5Y2VZfphKITMyqbisO4-3" target="bl-t90TqCPlwm7aX9RKi-2">
          <mxGeometry width="50" height="50" relative="1" as="geometry">
            <mxPoint x="700" y="1830" as="sourcePoint" />
            <mxPoint x="750" y="1780" as="targetPoint" />
          </mxGeometry>
        </mxCell>
        <mxCell id="-5Y2VZfphKITMyqbisO4-15" value="" style="endArrow=classic;startArrow=classic;html=1;rounded=0;fontSize=12;" edge="1" parent="1" source="-5Y2VZfphKITMyqbisO4-2" target="-5Y2VZfphKITMyqbisO4-16">
          <mxGeometry width="50" height="50" relative="1" as="geometry">
            <mxPoint x="700" y="1710" as="sourcePoint" />
            <mxPoint x="750" y="1660" as="targetPoint" />
          </mxGeometry>
        </mxCell>
        <mxCell id="-5Y2VZfphKITMyqbisO4-16" value="" style="verticalLabelPosition=bottom;html=1;verticalAlign=top;strokeWidth=1;align=center;outlineConnect=0;dashed=0;outlineConnect=0;shape=mxgraph.aws3d.application_server;fillColor=#ECECEC;strokeColor=#5E5E5E;aspect=fixed;shadow=0;sketch=0;fontSize=11;" vertex="1" parent="1">
          <mxGeometry x="820" y="1768" width="123" height="124" as="geometry" />
        </mxCell>
        <mxCell id="-5Y2VZfphKITMyqbisO4-17" value="" style="endArrow=classic;startArrow=classic;html=1;rounded=0;fontSize=12;entryX=0.805;entryY=0.153;entryDx=0;entryDy=0;entryPerimeter=0;" edge="1" parent="1" source="bl-t90TqCPlwm7aX9RKi-2" target="-5Y2VZfphKITMyqbisO4-16">
          <mxGeometry width="50" height="50" relative="1" as="geometry">
            <mxPoint x="837" y="1819.4314516129032" as="sourcePoint" />
            <mxPoint x="1020" y="1710" as="targetPoint" />
            <Array as="points">
              <mxPoint x="1050" y="1650" />
            </Array>
          </mxGeometry>
        </mxCell>
        <mxCell id="-5Y2VZfphKITMyqbisO4-18" value="&lt;h1&gt;Backend&lt;br&gt;&lt;/h1&gt;" style="text;html=1;strokeColor=none;fillColor=none;align=center;verticalAlign=middle;whiteSpace=wrap;rounded=0;" vertex="1" parent="1">
          <mxGeometry x="820" y="1702" width="126" height="72" as="geometry" />
        </mxCell>
        <mxCell id="-5Y2VZfphKITMyqbisO4-19" value="" style="endArrow=none;html=1;rounded=0;fontSize=12;entryX=0.081;entryY=0.742;entryDx=0;entryDy=0;entryPerimeter=0;" edge="1" parent="1" target="-5Y2VZfphKITMyqbisO4-16">
          <mxGeometry width="50" height="50" relative="1" as="geometry">
            <mxPoint x="780" y="1910" as="sourcePoint" />
            <mxPoint x="750" y="1660" as="targetPoint" />
          </mxGeometry>
        </mxCell>
      </root>
    </mxGraphModel>
  </diagram>
  <diagram id="guSkttVNabBWvX2afAPE" name="Telegram-Api Diagram">
    <mxGraphModel dx="1422" dy="764" grid="1" gridSize="10" guides="1" tooltips="1" connect="1" arrows="1" fold="1" page="1" pageScale="1" pageWidth="827" pageHeight="1169" math="0" shadow="0">
      <root>
        <mxCell id="0" />
        <mxCell id="1" parent="0" />
      </root>
    </mxGraphModel>
  </diagram>
</mxfile>
